<?xml version="1.0" standalone="no"?>
<!DOCTYPE svg PUBLIC "-//W3C//DTD SVG 20010904//EN"
 "http://www.w3.org/TR/2001/REC-SVG-20010904/DTD/svg10.dtd">
<svg version="1.0" xmlns="http://www.w3.org/2000/svg"
 width="118.000000pt" height="118.000000pt" viewBox="0 0 118.000000 118.000000"
 preserveAspectRatio="xMidYMid meet">
<metadata>
Created by potrace 1.11, written by Peter Selinger 2001-2013
</metadata>
<g transform="translate(0.000000,118.000000) scale(0.100000,-0.100000)"
fill="#000000" stroke="none">
<path d="M700 1134 c-6 -14 -10 -34 -10 -45 0 -20 -15 -26 -25 -9 -4 6 -11 8
-16 5 -13 -9 -11 9 4 25 10 12 9 12 -6 0 -11 -8 -16 -21 -14 -32 4 -14 -1 -18
-18 -18 -13 0 -37 -11 -52 -26 l-28 -25 33 16 c41 20 52 14 17 -9 -14 -9 -23
-21 -20 -26 10 -17 -56 -42 -94 -37 -33 6 -35 5 -17 -8 11 -8 35 -15 53 -15
19 0 33 -5 33 -12 0 -6 7 -19 16 -29 15 -17 13 -18 -23 -24 -79 -13 -83 -15
-83 -38 0 -30 42 -70 67 -64 15 4 14 5 -4 6 -28 1 -38 18 -23 36 18 21 40 18
40 -4 0 -11 4 -23 10 -26 6 -3 7 1 4 10 -5 12 2 10 29 -7 20 -13 36 -26 37
-30 1 -23 -81 -87 -135 -106 -87 -31 -107 -44 -133 -82 -16 -24 -36 -38 -67
-47 -25 -8 -54 -26 -69 -44 -56 -66 -21 -196 62 -233 28 -13 44 -29 56 -57 10
-22 29 -53 43 -70 23 -27 31 -30 60 -24 29 5 35 3 40 -15 6 -23 44 -36 68 -23
14 8 8 17 -35 59 -52 50 -90 102 -90 123 0 27 91 0 129 -38 12 -12 21 -19 21
-16 0 13 -31 65 -38 65 -5 0 -17 7 -28 15 -17 13 -16 14 16 5 63 -17 100 -83
68 -120 -7 -8 -3 -7 8 3 26 22 40 93 22 114 -9 11 -9 16 1 22 8 6 2 13 -21 24
-51 24 -72 51 -59 76 6 11 11 35 11 54 0 33 2 35 46 46 51 13 179 74 189 91 4
6 16 8 28 4 12 -4 50 -7 85 -5 34 1 62 -1 62 -4 0 -12 -56 -75 -66 -75 -7 0
-15 -7 -18 -16 -8 -22 -8 -54 2 -54 15 0 73 41 79 55 4 11 9 13 18 5 10 -8 24
3 60 45 53 61 53 57 -13 135 l-30 35 -36 -18 c-46 -22 -46 -22 -46 7 0 28 -37
105 -74 155 -14 19 -26 46 -26 59 0 22 3 24 33 18 17 -3 37 -13 43 -21 6 -8
21 -15 33 -15 30 0 28 46 -4 80 -37 39 -26 83 26 104 57 23 48 29 -10 7 -48
-18 -50 -18 -67 0 -9 10 -28 18 -43 18 -76 0 -117 25 -91 56 9 11 9 15 1 15
-6 0 -16 -12 -21 -26z m300 -527 c12 -22 12 -29 2 -39 -11 -11 -13 -10 -10 2
2 8 -10 18 -29 25 -31 10 -32 12 -16 28 22 21 34 18 53 -16z m-680 -131 c0 -8
19 -31 42 -50 l42 -36 -35 0 c-42 0 -103 31 -108 56 -3 18 23 44 46 44 7 0 13
-6 13 -14z m218 -150 c-1 -2 -21 -1 -43 2 -35 5 -37 6 -15 12 21 6 69 -6 58
-14z m42 -31 c33 -19 21 -19 -21 0 -19 8 -27 14 -19 14 8 0 26 -6 40 -14z
m-300 -46 c17 -13 18 -17 5 -10 -33 17 -51 31 -40 31 6 0 21 -10 35 -21z m321
-11 c16 -30 7 -29 -19 3 -17 21 -19 27 -7 23 8 -4 20 -15 26 -26z"/>
</g>
</svg>
